<svg width="50" height="50" viewBox="0 0 50 50" fill="none" xmlns="http://www.w3.org/2000/svg"><rect width="49.231" height="49.231" rx="8" fill="#fff"/><path d="M37.743 39.085l-6.486-5.046.72 2.163H14.68a3.604 3.604 0 01-3.603-3.603V13.86a3.603 3.603 0 013.603-3.603h19.46a3.603 3.603 0 013.603 3.603v25.225z" fill="#000"/><path d="M30.962 18.357s-1.874-1.448-4.094-1.614l-.195.396c2.004.483 2.92 1.182 3.878 2.04-1.65-.843-3.287-1.715-6.14-1.715-2.855 0-4.49.872-6.141 1.715.958-.858 2.054-1.636 3.877-2.04l-.194-.396c-2.328.223-4.094 1.614-4.094 1.614s-2.097 3.02-2.458 8.923c2.12 2.421 5.326 2.436 5.326 2.436l.664-.887a8.168 8.168 0 01-3.532-2.356c1.326.994 3.322 1.801 6.551 1.801 3.23 0 5.226-.807 6.552-1.801a8.168 8.168 0 01-3.532 2.356l.663.887S31.3 29.7 33.42 27.28c-.36-5.903-2.457-8.923-2.457-8.923zm-9.074 7.755c-.793 0-1.442-.807-1.442-1.801 0-.995.65-1.802 1.442-1.802.793 0 1.441.807 1.441 1.802 0 .994-.648 1.801-1.441 1.801zm5.045 0c-.793 0-1.442-.807-1.442-1.801 0-.995.65-1.802 1.442-1.802.793 0 1.441.807 1.441 1.802 0 .994-.648 1.801-1.441 1.801z" fill="#fff"/></svg>