<svg width="204" height="39" viewBox="0 0 204 39" fill="none" xmlns="http://www.w3.org/2000/svg"><path d="M66.627 6.87c-13.869-.14-13.576-.326-13.625.339-.07.926 1.683.224 2.102 1.722l.002.014c.042 1.332-.062 18.233-.069 19.284a1.607 1.607 0 01-.839 1.14.51.51 0 00.245.957h.106c2.138 0 5.03.062 6.671.358 1.16.21 2.293.316 3.37.316h.001c8.38 0 12.797-6.41 12.829-12.742.027-5.432-3.339-11.313-10.793-11.389zm-7.294 1.936c14.77-.95 15.014 10.228 12.791 15.699-1.163 2.863-5.24 4.574-8.51 4.574-2.023 0-3.5-.64-4.165-1.805l-.116-18.468zm26.901 9.932c0 7.976 6.522 12.149 12.964 12.149 6.248 0 12.887-4.46 12.887-12.723 0-15.74-25.851-16.143-25.851.574zm4.629-.05c0-5.848 1.683-10.552 7.58-10.552 4.626 0 8.839 4.76 8.839 9.997.1 4.708-.945 10.427-6.484 10.961-5.73-.008-9.073-3.516-9.934-10.396l-.001-.01zm49.212-12.13c-.51.163-1.129.272-1.539.272l-16.583-.023c-.632-.33-1.615-.734-1.767-.038l-.632 2.877a.51.51 0 00.922.39c.274-.416.688-.732 1.263-.963 1.476-.059 5.437-.066 6.307-.067l-.09 19.366c-.002.029-.041.699-.664 1.08-.438.266-.249.944.264.944l5.431-.024c.534-.003.704-.729.224-.967-.445-.22-.681-.553-.719-.986-.021-.901-.156-16.25-.183-19.409l5.55.132c.05.002 1.221.069 1.636 1.237a.51.51 0 00.558.333c.535-.082.435-.466.508-2.869.116-.263.211-.627.172-.878a.51.51 0 00-.658-.407zm30.953 16.666a439.962 439.962 0 00-4.817-.024l-6.822-16.888c-.184-.436-.776-.397-.94.006l-8.891 21.884a3.088 3.088 0 01-1.362 1.26c-.488.234-.319.969.219.97l4.03.006c.573 0 .704-.802.169-.99-.282-.143-.412-.342-.332-.648.285-.982 1.046-3.113 1.231-3.626l8.871.023 1.743 4.135a.205.205 0 01-.032.18.51.51 0 00.368.854l5.061.072a.509.509 0 00.171-.992c-.667-.322-.947-.627-2.661-4.265 1.514.032 1.8-.65 4.051-.942a.51.51 0 00-.057-1.015zm-12.952-9.96l3.572 9.904-7.445.086 3.873-9.99zm44.617 11.81c-.49 1.072-1.094 2.124-2.605 2.185-.787.031-4.978.197-7.61.177 15.787-12.05 11.583-21.123 2.177-21.123-2.062 0-4.134.498-5.686 1.364a.507.507 0 00-.259.408c-.04.546.065 1.648.312 3.277a.51.51 0 00.983.096c.907-2.532 2.731-3.434 4.135-3.434 2.009 0 4.109 1.725 4.236 5.023.282 7.338-8.65 14.264-10.652 16.171-.34.293-.606.602-.325.958 0 .64.81.722.991.2 1.718-.011 11.044-.065 12.77-.046 1.252.09 1.87-.637 1.898-1.451l.6-3.508c.1-.585-.719-.836-.965-.297z" fill="#fff"/><path d="M38.855 8.975c-.152-7.193-.161-5.638-.013-7.88a.241.241 0 00-.225-.257C27.907.106 27.501.021 26.671.021c-14.612 0-6.94-.24-26.444.91A.242.242 0 000 1.186C1.257 25.301 1.211 21.367.57 37.44a.241.241 0 00.185.245c1.46.345 1.201.209 4.606.212.006.001 6.381-.695 6.387-.696.03.005 8.816 1.447 8.846 1.447h.02c10.298-.863 7.346-.655 13.99-1.023l3.9.789c.152.03.29-.087.29-.24-.085-7.853.061-29.198.061-29.198zm-15.834-.572l.122-.031 2.777-.626c1.422-.356 1.632-.443 2.85-1.015.561.195 2.102 1.047 2.492 1.537.258.324.241.396.16.743a8.697 8.697 0 00-.055.252l-.61 4.777c-.605.023-.655-.024-.822-.177a2.277 2.277 0 00-.306-.245c-.919-.616-3.926-2.84-4.875-3.607l-1.866-1.499.015-.014a.26.26 0 00.05-.074.3.3 0 01.068-.021zm4.327 24.055C27.293 32.404 4.018 7.728 4 7.694l2.034-1.56L34.45 24.951c-.235.673-.329 1.445-.47 2.087-.5 2.264-1.141 3.256-2.145 5.408-1.437.057-4.39.046-4.488.012zM6.174 25.783c.262-.63.622-1.64.924-2.153 1.486.929 7.292 6.762 7.798 7.55-.28.104-1.482.282-3.478 1.08-1.264.504-2.458.983-3.612.592-.115-.04-.421-.3-.876-.692-.83-.717-1.583-1.233-2.02-1.491-.746-.44-.63-.348 1.264-4.887z" fill="#EA473B"/><path d="M2.97 25.834c-.182-9.4.022-4.28-1.058-25.001L.227.932A.241.241 0 000 1.185l.897 17.206c.178 9.191.227 5.163-.328 19.048a.241.241 0 00.186.245c.824.195 1.166.238 1.746.238-.019-.062-.039.623.47-12.088zm13.134 5.877s.985-.339.176-1.227c-3.305-3.686-5.319-5.022-7.232-7.121-.8-.866-1.95.267-1.95.267 7.479 6.648 5.98 5.685 7.299 6.958.175.17.313.302.498.592a8.893 8.893 0 01-.398.105c-3.112.785-3.579 1.318-4.968 1.616 1.296 1.057 3.583-.233 5.213-.794.39-.134.906-.276 1.362-.396zm19.761-8.717L8.698 5.668c-.91-.58-1.892-.3-2.664.466L34.45 24.951c-.235.673-.329 1.445-.47 2.087-.5 2.264-1.141 3.256-2.145 5.407 0 0 2.574.495 3.358-1.247 1.841-3.918 1.416-4.657 1.855-5.894-.052-.698.045-1.527-1.184-2.31zM31.37 9.244a.277.277 0 00-.003.019l-.61 4.777s2.415 1.492 2.719-.96v-.003l.5-4.04a.2.2 0 01.003-.018c.019-.092.037-.17.053-.239.083-.354.1-.428-.163-.76-.278-.347-1.52-1.265-2.446-1.86-.874-.585-1.912.12-1.912.12-.26.198-.49.371-.742.45.635.344 2.243 1.224 2.493 1.538.258.324.241.396.16.743a8.515 8.515 0 00-.052.233z" fill="#D82B27"/></svg>