<svg width="50" height="50" viewBox="0 0 50 50" fill="none" xmlns="http://www.w3.org/2000/svg"><rect x=".23" width="49.231" height="49.231" rx="8" fill="#fff"/><path d="M40.166 18.12c-.073-1.648-.34-2.781-.721-3.763a7.567 7.567 0 00-1.794-2.751 7.633 7.633 0 00-2.745-1.788c-.988-.382-2.115-.648-3.763-.721-1.66-.079-2.188-.097-6.4-.097-4.211 0-4.738.018-6.392.09-1.649.074-2.782.34-3.763.722a7.569 7.569 0 00-2.752 1.794 7.637 7.637 0 00-1.787 2.745c-.382.988-.649 2.115-.721 3.763-.08 1.66-.098 2.188-.098 6.4 0 4.21.019 4.738.091 6.392.073 1.648.34 2.782.722 3.763a7.649 7.649 0 001.793 2.752 7.634 7.634 0 002.745 1.787c.988.382 2.115.648 3.764.721 1.654.073 2.181.091 6.393.091 4.211 0 4.738-.018 6.393-.09 1.648-.074 2.781-.34 3.763-.722a7.934 7.934 0 004.539-4.539c.381-.987.648-2.115.72-3.763.073-1.654.092-2.181.092-6.393s-.007-4.739-.08-6.393zm-2.794 12.665c-.066 1.515-.32 2.333-.533 2.878a5.146 5.146 0 01-2.945 2.946c-.545.212-1.37.466-2.878.533-1.637.072-2.127.09-6.266.09-4.14 0-4.636-.017-6.266-.09-1.515-.067-2.333-.321-2.879-.533a4.774 4.774 0 01-1.781-1.158 4.824 4.824 0 01-1.158-1.781c-.212-.546-.466-1.37-.533-2.879-.073-1.636-.09-2.127-.09-6.266s.017-4.636.09-6.266c.067-1.515.321-2.333.533-2.878a4.716 4.716 0 011.164-1.782 4.816 4.816 0 011.781-1.157c.546-.212 1.37-.466 2.879-.533 1.636-.073 2.127-.091 6.266-.091 4.145 0 4.635.018 6.266.09 1.515.068 2.333.322 2.878.534a4.77 4.77 0 011.782 1.157 4.82 4.82 0 011.157 1.782c.212.545.467 1.37.533 2.878.073 1.637.091 2.127.091 6.266 0 4.14-.018 4.624-.09 6.26z" fill="#000"/><path d="M24.744 16.545a7.97 7.97 0 00-7.969 7.968 7.97 7.97 0 007.969 7.969 7.97 7.97 0 007.968-7.969 7.97 7.97 0 00-7.968-7.968zm0 13.137a5.17 5.17 0 11.002-10.34 5.17 5.17 0 01-.002 10.34zM34.888 16.23a1.86 1.86 0 11-3.721 0 1.86 1.86 0 013.72 0z" fill="#000"/></svg>