<svg width="50" height="50" viewBox="0 0 50 50" fill="none" xmlns="http://www.w3.org/2000/svg"><rect width="49.231" height="49.231" rx="19" fill="#000"/><path d="M32.955 17.46L21.991 27.65a2.272 2.272 0 00-.704 1.36l-.373 2.768c-.05.37-.57.407-.672.048l-1.436-5.046a1.338 1.338 0 01.585-1.505l13.285-8.183c.238-.146.484.177.28.367zM40.231 0a9 9 0 019 9v31.23a9 9 0 01-9 9H9a9 9 0 01-9-9V9a9 9 0 019-9h31.23zm-1.956 11.828L10.378 22.59c-.688.265-.682 1.24.008 1.498l2.662.993a9 9 0 015.446 5.76l1.32 4.246a.801.801 0 001.272.383l3.79-3.09a1.13 1.13 0 011.376-.038l6.835 4.962a.801.801 0 001.255-.485l5.006-24.081a.801.801 0 00-1.073-.91z" fill="#fff"/></svg>