<svg width="471" height="140" viewBox="0 0 471 140" fill="none" xmlns="http://www.w3.org/2000/svg"><g filter="url(#filter0_d)"><mask id="a" maskUnits="userSpaceOnUse" x="4" y="0" width="463" height="132" fill="#000"><path fill="#fff" d="M4 0h463v132H4z"/><path d="M47.43 125L14 7h12.186l28.49 101.986L84.65 7h13.504l29.972 101.986L156.615 7h12.187l-33.431 118h-13.833L91.401 22.509 61.264 125H47.43zm209.635 0l-10.704-28.994h-54.675L180.982 125h-12.187l44.3-118h11.857l44.299 118h-12.186zm-61.262-40.12h46.44l-23.22-63.214-23.22 63.214zM315.014 125L272.526 7h12.516l35.9 102.323L356.843 7h12.516l-42.488 118h-11.857zm88.994-11.126H460V125h-67.52V7h66.697v11.126h-55.169V59.93h51.052v11.126h-51.052v42.817z"/></mask><path d="M47.43 125L14 7h12.186l28.49 101.986L84.65 7h13.504l29.972 101.986L156.615 7h12.187l-33.431 118h-13.833L91.401 22.509 61.264 125H47.43zm209.635 0l-10.704-28.994h-54.675L180.982 125h-12.187l44.3-118h11.857l44.299 118h-12.186zm-61.262-40.12h46.44l-23.22-63.214-23.22 63.214zM315.014 125L272.526 7h12.516l35.9 102.323L356.843 7h12.516l-42.488 118h-11.857zm88.994-11.126H460V125h-67.52V7h66.697v11.126h-55.169V59.93h51.052v11.126h-51.052v42.817z" fill="url(#paint0_linear)"/><path d="M47.43 125l-6.734 1.908L42.138 132h5.293v-7zM14 7V0H4.741l2.524 8.908L14 7zm12.186 0l6.742-1.883L31.5 0h-5.313v7zm28.49 101.986l-6.741 1.883 13.458.09-6.716-1.973zM84.65 7V0h-5.24l-1.477 5.026L84.649 7zm13.504 0l6.716-1.974L103.392 0h-5.24v7zm29.972 101.986l-6.716 1.973 13.458-.09-6.742-1.883zM156.615 7V0h-5.312l-1.43 5.117L156.615 7zm12.187 0l6.734 1.908L178.06 0h-9.258v7zm-33.431 118v7h5.292l1.443-5.092-6.735-1.908zm-13.833 0l-6.716 1.975L116.3 132h5.238v-7zM91.401 22.509l6.716-1.975H84.684l6.716 1.975zM61.264 125v7h5.238l1.478-5.025L61.264 125zm195.801 0l-6.567 2.424 1.689 4.576h4.878v-7zm-10.704-28.994l6.566-2.425-1.689-4.575h-4.877v7zm-54.675 0v-7h-4.878l-1.689 4.575 6.567 2.425zM180.982 125v7h4.877l1.689-4.576-6.566-2.424zm-12.187 0l-6.553-2.46-3.552 9.46h10.105v-7zm44.3-118V0h-4.849l-1.705 4.54L213.095 7zm11.857 0l6.553-2.46L229.801 0h-4.849v7zm44.299 118v7h10.105l-3.551-9.46-6.554 2.46zm-73.448-40.12l-6.571-2.414-3.458 9.414h10.029v-7zm46.44 0v7h10.029l-3.458-9.414-6.571 2.414zm-23.22-63.214l6.571-2.414h-13.141l6.57 2.414zM315.014 125l-6.586 2.371 1.666 4.629h4.92v-7zM272.526 7V0h-9.961l3.375 9.371L272.526 7zm12.516 0l6.605-2.317L290.004 0h-4.962v7zm35.9 102.323l-6.605 2.317h13.211l-6.606-2.317zM356.843 7V0h-4.962l-1.643 4.683L356.843 7zm12.516 0l6.586 2.371L379.319 0h-9.96v7zm-42.488 118v7h4.919l1.667-4.629-6.586-2.371zm77.137-11.126h-7v7h7v-7zm55.992 0h7v-7h-7v7zM460 125v7h7v-7h-7zm-67.52 0h-7v7h7v-7zm0-118V0h-7v7h7zm66.697 0h7V0h-7v7zm0 11.126v7h7v-7h-7zm-55.169 0v-7h-7v7h7zm0 41.805h-7v7h7v-7zm51.052 0h7v-7h-7v7zm0 11.126v7h7v-7h-7zm-51.052 0v-7h-7v7h7zM54.166 123.092l-33.431-118-13.47 3.816 33.43 118 13.47-3.816zM14 14h12.186V0H14v14zm5.445-5.117l28.49 101.986 13.483-3.767L32.928 5.117 19.445 8.883zM61.393 110.96L91.365 8.974 77.933 5.026 47.96 107.012l13.432 3.947zM84.649 14h13.504V0H84.649v14zm6.788-5.026l29.972 101.985 13.432-3.947L104.869 5.026 91.437 8.974zm43.43 101.895l28.49-101.986-13.484-3.766-28.49 101.985 13.484 3.767zM156.615 14h12.187V0h-12.187v14zm5.452-8.908l-33.431 118 13.47 3.816 33.43-118-13.469-3.816zM135.371 118h-13.833v14h13.833v-14zm-7.118 5.025L98.117 20.534l-13.432 3.95 30.137 102.491 13.431-3.95zM84.685 20.534L54.548 123.025l13.432 3.95L98.116 24.483l-13.43-3.95zM61.264 118H47.43v14h13.834v-14zm202.368 4.576l-10.705-28.995-13.133 4.85 10.704 28.993 13.134-4.848zm-17.271-33.57h-54.675v14h54.675v-14zm-61.242 4.575l-10.704 28.995 13.133 4.848 10.705-28.994-13.134-4.849zM180.982 118h-12.187v14h12.187v-14zm-5.634 9.46l44.3-118-13.107-4.92-44.299 118 13.106 4.92zM213.095 14h11.857V0h-11.857v14zm5.303-4.54l44.3 118 13.107-4.92-44.3-118-13.107 4.92zM269.251 118h-12.186v14h12.186v-14zm-73.448-26.12h46.44v-14h-46.44v14zm53.011-9.414l-23.22-63.214-13.141 4.827 23.22 63.215 13.141-4.828zm-36.361-63.214l-23.221 63.214 13.142 4.828 23.22-63.215-13.141-4.827zM321.6 122.63l-42.488-118-13.172 4.74 42.488 118 13.172-4.742zM272.526 14h12.516V0h-12.516v14zm5.91-4.682l35.901 102.322 13.211-4.635L291.647 4.683l-13.211 4.635zm49.112 102.322l35.9-102.323-13.21-4.635-35.901 102.323 13.211 4.635zM356.843 14h12.516V0h-12.516v14zm5.93-9.371l-42.488 118 13.172 4.742 42.488-118-13.172-4.742zM326.871 118h-11.857v14h11.857v-14zm77.137 2.874H460v-14h-55.992v14zm48.992-7V125h14v-11.126h-14zm7 4.126h-67.52v14H460v-14zm-60.52 7V7h-14v118h14zm-7-111h66.697V0H392.48v14zm59.697-7v11.126h14V7h-14zm7 4.126h-55.169v14h55.169v-14zm-62.169 7V59.93h14V18.126h-14zm7 48.805h51.052v-14h-51.052v14zm44.052-7v11.126h14V59.931h-14zm7 4.126h-51.052v14h51.052v-14zm-58.052 7v42.817h14V71.057h-14z" fill="url(#paint1_linear)" mask="url(#a)"/></g><defs><linearGradient id="paint0_linear" x1="20.5" y1="60.93" x2="459.988" y2="66.896" gradientUnits="userSpaceOnUse"><stop offset=".25" stop-color="#0FF"/><stop offset="1" stop-color="#F0F"/></linearGradient><linearGradient id="paint1_linear" x1="4.872" y1="66.898" x2="470.23" y2="66.898" gradientUnits="userSpaceOnUse"><stop offset=".266" stop-color="#0FF"/><stop offset=".971" stop-color="#F0F"/></linearGradient><filter id="filter0_d" x=".741" y="0" width="470.259" height="140" filterUnits="userSpaceOnUse" color-interpolation-filters="sRGB"><feFlood flood-opacity="0" result="BackgroundImageFix"/><feColorMatrix in="SourceAlpha" values="0 0 0 0 0 0 0 0 0 0 0 0 0 0 0 0 0 0 127 0"/><feOffset dy="4"/><feGaussianBlur stdDeviation="2"/><feColorMatrix values="0 0 0 0 0 0 0 0 0 0 0 0 0 0 0 0 0 0 0.57 0"/><feBlend in2="BackgroundImageFix" result="effect1_dropShadow"/><feBlend in="SourceGraphic" in2="effect1_dropShadow" result="shape"/></filter></defs></svg>